<?xml version="1.0" encoding="UTF-8" standalone="no"?>
<svg
   xmlns:dc="http://purl.org/dc/elements/1.1/"
   xmlns:cc="http://creativecommons.org/ns#"
   xmlns:rdf="http://www.w3.org/1999/02/22-rdf-syntax-ns#"
   xmlns:svg="http://www.w3.org/2000/svg"
   xmlns="http://www.w3.org/2000/svg"
   xmlns:sodipodi="http://sodipodi.sourceforge.net/DTD/sodipodi-0.dtd"
   xmlns:inkscape="http://www.inkscape.org/namespaces/inkscape"
   width="512"
   height="512"
   version="1.1"
   id="svg4"
   sodipodi:docname="align-sphere-symbolic.svg"
   inkscape:version="0.92.4 5da689c313, 2019-01-14">
  <metadata
     id="metadata10">
    <rdf:RDF>
      <cc:Work
         rdf:about="">
        <dc:format>image/svg+xml</dc:format>
        <dc:type
           rdf:resource="http://purl.org/dc/dcmitype/StillImage" />
        <dc:title></dc:title>
      </cc:Work>
    </rdf:RDF>
  </metadata>
  <defs
     id="defs8" />
  <sodipodi:namedview
     pagecolor="#ffffff"
     bordercolor="#666666"
     borderopacity="1"
     objecttolerance="10"
     gridtolerance="10"
     guidetolerance="10"
     inkscape:pageopacity="0"
     inkscape:pageshadow="2"
     inkscape:window-width="2560"
     inkscape:window-height="1376"
     id="namedview6"
     showgrid="false"
     inkscape:zoom="1.84375"
     inkscape:cx="181.93564"
     inkscape:cy="225.20094"
     inkscape:window-x="1080"
     inkscape:window-y="27"
     inkscape:window-maximized="1"
     inkscape:current-layer="svg4"
     showguides="false" />
  <path
     style="color:#000000;font-style:normal;font-variant:normal;font-weight:normal;font-stretch:normal;font-size:medium;line-height:normal;font-family:sans-serif;font-variant-ligatures:normal;font-variant-position:normal;font-variant-caps:normal;font-variant-numeric:normal;font-variant-alternates:normal;font-feature-settings:normal;text-indent:0;text-align:start;text-decoration:none;text-decoration-line:none;text-decoration-style:solid;text-decoration-color:#000000;letter-spacing:normal;word-spacing:normal;text-transform:none;writing-mode:lr-tb;direction:ltr;text-orientation:mixed;dominant-baseline:auto;baseline-shift:baseline;text-anchor:start;white-space:normal;shape-padding:0;clip-rule:nonzero;display:inline;overflow:visible;visibility:visible;opacity:1;isolation:auto;mix-blend-mode:normal;color-interpolation:sRGB;color-interpolation-filters:linearRGB;solid-color:#000000;solid-opacity:1;vector-effect:none;fill:#b8b8b8;fill-opacity:1;fill-rule:evenodd;stroke:none;stroke-width:61.37393188;stroke-linecap:butt;stroke-linejoin:miter;stroke-miterlimit:4;stroke-dasharray:none;stroke-dashoffset:0;stroke-opacity:1;marker:none;paint-order:normal;color-rendering:auto;image-rendering:auto;shape-rendering:auto;text-rendering:auto;enable-background:accumulate"
     d="M 256,0 C 114.97859,0 0,114.97856 0,256 0,397.02144 114.97859,512 256,512 397.02141,512 512,397.02144 512,256 512,114.97856 397.02141,0 256,0 Z m 0,61.37504 c 18.44321,0 36.18065,2.7552 53.0625,7.49984 4.54827,6.94752 8.99649,14.37952 13.12499,23.18752 5.90438,12.5968 10.91443,27.29952 15.37501,42.8752 C 311.82087,130.72768 284.67778,128 256,128 c -28.70021,0 -55.86608,2.72 -81.625,6.9376 4.46056,-15.57568 9.47063,-30.2784 15.375,-42.8752 4.12919,-8.80928 8.6339,-16.23936 13.1875,-23.18752 C 219.81935,64.12864 237.55679,61.37504 256,61.37504 Z M 159.5,86.9376 c -7.12431,16.41984 -12.81417,35.0576 -17.6875,54.62496 -19.78784,4.8384 -38.22022,10.77344 -54.750001,17.93728 C 104.31981,129.31456 129.27295,104.1632 159.5,86.9376 Z m 193,0 c 30.22704,17.2256 55.18019,42.37696 72.4375,72.56224 C 408.40771,152.336 389.97533,146.40096 370.18749,141.56256 365.31418,121.9952 359.62432,103.35744 352.5,86.9376 Z M 256,158.12512 c 31.75846,0 61.96068,3.088 89.37501,8.43744 5.34022,27.42976 8.4375,57.65632 8.4375,89.43744 0,31.78112 -3.09728,61.99232 -8.4375,89.43744 -27.41433,5.34848 -57.61655,8.43744 -89.37501,8.43744 -31.78106,0 -62.00771,-3.0816 -89.4375,-8.43744 C 161.22227,317.99232 158.125,287.78112 158.125,256 c 0,-31.78112 3.09728,-62.00768 8.4375,-89.43744 27.42979,-5.35552 57.65644,-8.43744 89.4375,-8.43744 z M 134.9375,174.43744 C 130.66393,200.09792 128,227.30144 128,256 c 0,28.69856 2.66394,55.90208 6.9375,81.56256 -15.57444,-4.46848 -30.27913,-9.47104 -42.875001,-15.37504 C 83.16215,318.01568 75.629974,313.53696 68.624998,308.9376 63.906566,292.12384 61.375002,274.37408 61.375002,256 c 0,-18.37408 2.531552,-36.12384 7.249996,-52.9376 7.004976,-4.59936 14.537152,-9.07808 23.437501,-13.24992 12.595871,-5.904 27.300561,-10.90656 42.875001,-15.37504 z m 242.125,0 c 15.57443,4.46848 30.27913,9.47104 42.875,15.37504 8.90036,4.17184 16.43252,8.65056 23.43751,13.24992 4.71843,16.81376 7.24998,34.56352 7.24998,52.9376 0,18.37408 -2.53152,36.12384 -7.24998,52.9376 -7.00499,4.59936 -14.53715,9.07808 -23.43751,13.24992 -12.59587,5.904 -27.30057,10.90656 -42.875,15.37504 C 381.33606,311.90208 384,284.69856 384,256 c 0,-28.69856 -2.664,-55.90208 -6.9375,-81.56256 z M 87.062499,352.49984 c 16.529781,7.16416 34.962161,13.0992 54.750001,17.9376 4.87333,19.56704 10.56319,38.20512 17.6875,54.62496 -30.22705,-17.2256 -55.18019,-42.37696 -72.437501,-72.56256 z m 337.875001,0 c -17.25731,30.1856 -42.21046,55.33696 -72.4375,72.56256 7.12432,-16.41984 12.81418,-35.05792 17.68749,-54.62496 19.78784,-4.8384 38.22022,-10.77344 54.75001,-17.9376 z M 174.375,377.0624 C 200.13392,381.27872 227.29979,384 256,384 c 28.67778,0 55.82087,-2.7264 81.5625,-6.9376 -4.46324,15.60096 -9.46512,30.32896 -15.37501,42.9376 -4.12008,8.79008 -8.58671,16.18784 -13.12499,23.12512 -16.88185,4.74624 -34.61929,7.49984 -53.0625,7.49984 -18.46435,0 -36.22596,-2.7424 -53.125,-7.49984 C 198.33706,436.19296 193.866,428.78144 189.75,420 183.84012,407.39136 178.83822,392.66336 174.375,377.0624 Z"
     id="path4536"
     inkscape:connector-curvature="0" />
  <circle
     style="color:#000000;clip-rule:nonzero;display:inline;overflow:visible;visibility:visible;opacity:1;isolation:auto;mix-blend-mode:normal;color-interpolation:sRGB;color-interpolation-filters:linearRGB;solid-color:#000000;solid-opacity:1;vector-effect:none;fill:none;fill-opacity:1;fill-rule:evenodd;stroke:#008000;stroke-width:1.98899984;stroke-linecap:butt;stroke-linejoin:miter;stroke-miterlimit:4;stroke-dasharray:none;stroke-dashoffset:0;stroke-opacity:1;marker:none;paint-order:normal;color-rendering:auto;image-rendering:auto;shape-rendering:auto;text-rendering:auto;enable-background:accumulate"
     id="path817"
     cx="-14.748484"
     cy="504.28363"
     r="0" />
</svg>
