<?xml version="1.0" encoding="UTF-8"?>
<svg xmlns="http://www.w3.org/2000/svg" xmlns:xlink="http://www.w3.org/1999/xlink" width="512px" height="512px" viewBox="0 0 512 512" version="1.1">
<g id="surface1">
<path style=" stroke:none;fill-rule:nonzero;fill:rgb(72.156864%,72.156864%,72.156864%);fill-opacity:1;" d="M 128 192 L 128 256 L 336 256 C 362.878906 256 384 277.121094 384 304 C 384 330.878906 362.878906 352 336 352 L 320 352 L 320 416 L 336 416 C 397.472656 416 448 365.472656 448 304 C 448 242.527344 397.472656 192 336 192 Z M 128 192 "/>
<path style=" stroke:none;fill-rule:nonzero;fill:rgb(72.156864%,72.156864%,72.156864%);fill-opacity:1;" d="M 224 96.703125 L 224 128.703125 C 224 136.929688 219.839844 145.632812 213.984375 151.710938 L 141.023438 224.703125 L 213.984375 297.695312 C 219.839844 303.777344 224 312.480469 224 320.734375 L 224 352.734375 L 192 352.734375 C 182.078125 352.734375 174.335938 349.824219 168 343.710938 L 51.007812 224.703125 L 168 105.695312 C 174.335938 99.617188 182.078125 96.734375 192 96.734375 Z M 224 96.703125 "/>
</g>
</svg>
