<?xml version="1.0" encoding="UTF-8" standalone="no"?>
<!-- Created with Inkscape (http://www.inkscape.org/) -->

<svg
   xmlns:dc="http://purl.org/dc/elements/1.1/"
   xmlns:cc="http://creativecommons.org/ns#"
   xmlns:rdf="http://www.w3.org/1999/02/22-rdf-syntax-ns#"
   xmlns:svg="http://www.w3.org/2000/svg"
   xmlns="http://www.w3.org/2000/svg"
   xmlns:sodipodi="http://sodipodi.sourceforge.net/DTD/sodipodi-0.dtd"
   xmlns:inkscape="http://www.inkscape.org/namespaces/inkscape"
   sodipodi:docname="input-mouse-symbolic.svg"
   height="512"
   id="svg7384"
   inkscape:version="0.92.4 5da689c313, 2019-01-14"
   version="1.1"
   width="512">
  <metadata
     id="metadata90">
    <rdf:RDF>
      <cc:Work
         rdf:about="">
        <dc:format>image/svg+xml</dc:format>
        <dc:type
           rdf:resource="http://purl.org/dc/dcmitype/StillImage" />
        <dc:title>Gnome Symbolic Icon Theme</dc:title>
      </cc:Work>
    </rdf:RDF>
  </metadata>
  <sodipodi:namedview
     inkscape:bbox-paths="false"
     bordercolor="#666666"
     borderopacity="1"
     inkscape:current-layer="g4529"
     inkscape:cx="336.48408"
     inkscape:cy="261.11658"
     gridtolerance="10"
     inkscape:guide-bbox="true"
     guidetolerance="10"
     id="namedview88"
     inkscape:object-nodes="false"
     inkscape:object-paths="false"
     objecttolerance="10"
     pagecolor="#555753"
     inkscape:pageopacity="1"
     inkscape:pageshadow="2"
     showborder="true"
     showgrid="false"
     showguides="true"
     inkscape:snap-bbox="true"
     inkscape:snap-bbox-midpoints="false"
     inkscape:snap-global="true"
     inkscape:snap-grids="true"
     inkscape:snap-nodes="false"
     inkscape:snap-others="false"
     inkscape:snap-to-guides="true"
     inkscape:window-height="1376"
     inkscape:window-maximized="1"
     inkscape:window-width="2560"
     inkscape:window-x="1080"
     inkscape:window-y="27"
     inkscape:zoom="1.4142136">
    <inkscape:grid
       empspacing="2"
       enabled="true"
       id="grid4866"
       snapvisiblegridlinesonly="true"
       spacingx="1"
       spacingy="1"
       type="xygrid"
       visible="true"
       originx="0"
       originy="0" />
  </sodipodi:namedview>
  <title
     id="title9167">Gnome Symbolic Icon Theme</title>
  <defs
     id="defs7386" />
  <g
     inkscape:groupmode="layer"
     id="layer9"
     inkscape:label="status"
     style="display:inline"
     transform="translate(-341.0002,49.000002)" />
  <g
     inkscape:groupmode="layer"
     id="layer10"
     inkscape:label="devices"
     transform="translate(-341.0002,49.000002)">
    <g
       id="g4529"
       transform="translate(10.887696)">
      <path
         inkscape:transform-center-y="-21.000297"
         inkscape:transform-center-x="-11.692766"
         style="fill:#b8b8b8;fill-opacity:1;stroke:none;stroke-width:34.11249542"
         sodipodi:nodetypes="cccccccccccccccccccc"
         id="rect7357"
         d="m 434.55937,87.537982 c -31.77613,-0.102337 -57.48467,26.105968 -57.64022,58.894578 0.61402,25.39233 0.75389,51.40278 0.51168,77.39994 l 99.65522,0.52192 0.64473,-136.580038 -43.17653,-0.204674 z m 82.11833,0.399117 -0.64473,136.581061 99.65964,0.52192 c 0.51169,-26.09949 1.02338,-52.28903 1.24853,-77.39004 0.10234,-32.78861 -25.29987,-59.314847 -57.07771,-59.475859 L 516.67565,87.969507 Z M 377.28074,261.26007 c -0.38547,28.3683 -1.26216,51.18448 -1.27922,77.29725 -0.30702,68.60266 52.93645,124.10372 119.42341,124.4411 66.48627,0.34113 120.2752,-54.62096 120.602,-123.22464 -1.20418,-28.53682 -1.56918,-51.45601 -1.27923,-78.51371 z"
         inkscape:connector-curvature="0" />
      <path
         style="color:#000000;font-style:normal;font-variant:normal;font-weight:normal;font-stretch:normal;font-size:medium;line-height:normal;font-family:Sans;-inkscape-font-specification:Sans;text-indent:0;text-align:start;text-decoration:none;text-decoration-line:none;letter-spacing:normal;word-spacing:normal;text-transform:none;writing-mode:lr-tb;direction:ltr;baseline-shift:baseline;text-anchor:start;display:inline;overflow:visible;visibility:visible;fill:#b8b8b8;fill-opacity:1;stroke:none;stroke-width:34.11249542;marker:none;enable-background:accumulate"
         sodipodi:nodetypes="sscscscssccccsscs"
         id="path7413"
         d="m 549.97525,-48.687966 c -15.49731,1.688571 -30.15443,7.552517 -42.64062,17.056259 -16.64827,12.671438 -27.7164,32.5726806 -27.7164,57.564874 -0.13646,9.011162 8.0444,17.299139 17.05623,17.299139 9.01185,0 17.18384,-8.287977 17.05626,-17.299139 0,-15.31993 5.85506,-24.0114586 14.92421,-30.9144678 9.06915,-6.9030092 22.64252,-10.2416002 36.24453,-9.5941452 13.60201,0.648139 26.75374,5.2563979 36.24453,13.85821038 9.49077,8.60181162 15.99022,19.93876562 15.99022,38.37657962 0,73.863836 49.93456,119.703886 102.33749,118.327796 29.22485,-0.76754 57.59041,-16.27031 76.75311,-44.77268 L 777.03654,77.10194 c -12.80481,31.23683 -36.42704,44.1897 -58.63086,44.77268 -32.76369,0.85964 -67.15897,-24.89361 -67.15897,-84.215276 0,-27.016089 -11.48977,-49.254378 -27.7164,-63.96097 -16.22663,-14.706584 -36.87698,-21.40151 -57.56483,-22.38634 -5.17214,-0.238786 -10.82459,-0.562854 -15.99023,0 z"
         inkscape:connector-curvature="0" />
    </g>
  </g>
  <g
     inkscape:groupmode="layer"
     id="layer11"
     inkscape:label="apps"
     transform="translate(-341.0002,49.000002)" />
  <g
     inkscape:groupmode="layer"
     id="layer13"
     inkscape:label="places"
     transform="translate(-341.0002,49.000002)" />
  <g
     inkscape:groupmode="layer"
     id="layer14"
     inkscape:label="mimetypes"
     transform="translate(-341.0002,49.000002)" />
  <g
     inkscape:groupmode="layer"
     id="layer15"
     inkscape:label="emblems"
     style="display:inline"
     transform="translate(-341.0002,49.000002)" />
  <g
     inkscape:groupmode="layer"
     id="g71291"
     inkscape:label="emotes"
     style="display:inline"
     transform="translate(-341.0002,49.000002)" />
  <g
     inkscape:groupmode="layer"
     id="g4953"
     inkscape:label="categories"
     style="display:inline"
     transform="translate(-341.0002,49.000002)" />
  <g
     inkscape:groupmode="layer"
     id="layer12"
     inkscape:label="actions"
     style="display:inline"
     transform="translate(-341.0002,49.000002)" />
</svg>
