<?xml version="1.0" encoding="UTF-8" standalone="no"?>
<svg
   xmlns:dc="http://purl.org/dc/elements/1.1/"
   xmlns:cc="http://creativecommons.org/ns#"
   xmlns:rdf="http://www.w3.org/1999/02/22-rdf-syntax-ns#"
   xmlns:svg="http://www.w3.org/2000/svg"
   xmlns="http://www.w3.org/2000/svg"
   xmlns:sodipodi="http://sodipodi.sourceforge.net/DTD/sodipodi-0.dtd"
   xmlns:inkscape="http://www.inkscape.org/namespaces/inkscape"
   width="512px"
   height="512px"
   viewBox="0 0 512 512"
   version="1.1"
   id="svg9"
   sodipodi:docname="object-hidden-symbolic.svg"
   inkscape:version="0.92.4 5da689c313, 2019-01-14">
  <metadata
     id="metadata15">
    <rdf:RDF>
      <cc:Work
         rdf:about="">
        <dc:format>image/svg+xml</dc:format>
        <dc:type
           rdf:resource="http://purl.org/dc/dcmitype/StillImage" />
      </cc:Work>
    </rdf:RDF>
  </metadata>
  <defs
     id="defs13" />
  <sodipodi:namedview
     pagecolor="#ffffff"
     bordercolor="#666666"
     borderopacity="1"
     objecttolerance="10"
     gridtolerance="10"
     guidetolerance="10"
     inkscape:pageopacity="0"
     inkscape:pageshadow="2"
     inkscape:window-width="2560"
     inkscape:window-height="1376"
     id="namedview11"
     showgrid="false"
     inkscape:zoom="1.84375"
     inkscape:cx="52.544483"
     inkscape:cy="312.21149"
     inkscape:window-x="1080"
     inkscape:window-y="27"
     inkscape:window-maximized="1"
     inkscape:current-layer="surface1" />
  <g
     id="surface1">
    <path
       style="fill:#b8b8b8;fill-opacity:1;fill-rule:nonzero;stroke:none"
       d="m 256,170.8125 c -8.69922,0 -16.98828,1.46094 -25,3.5625 l 116.4375,116.4375 c 2.69531,-8.58203 4.5625,-17.5 4.5625,-26.9375 0,-51.39063 -42.98047,-93.0625 -96,-93.0625 z m -51.5625,14.75 C 177.77344,202.09375 160,230.91797 160,263.875 c 0,51.39062 42.98047,93.0625 96,93.0625 32.90625,0 61.95312,-16.09766 79.25,-40.5625 l -81.5,-81.5 c -21.57287,15.29937 -39.91186,-17.23725 -30.25,-30.25 z"
       id="path2"
       inkscape:connector-curvature="0"
       sodipodi:nodetypes="sccsscsscccc" />
    <path
       style=" stroke:none;fill-rule:nonzero;fill:rgb(72.156864%,72.156864%,72.156864%);fill-opacity:1;"
       d="M 52.5625 33.6875 L 33.6875 52.5625 L 115.70508 134.58008 C 46.056038 189.30642 0 263.875 0 263.875 C 0 263.875 114.61328 450 256 450 C 302.59945 450 346.06086 429.65186 383.62695 402.50195 L 461.125 480 L 480 461.125 L 52.5625 33.6875 z M 256 77.75 C 222.02344 77.75 189.66797 88.667969 160 105 L 202.9375 148 C 219.33203 143.00781 236.92187 139.8125 256 139.8125 C 379.71094 139.8125 448 263.875 448 263.875 C 448 263.875 427.14062 300.39844 388.8125 333.875 L 423.8125 368.8125 C 477.42578 318.62109 512 263.875 512 263.875 C 512 263.875 397.38672 77.75 256 77.75 z M 152.43359 171.30859 L 345.70703 364.58203 C 320.24021 378.37115 290.28014 387.9375 256 387.9375 C 132.28906 387.9375 64 263.875 64 263.875 C 64 263.875 94.802993 208.05401 152.43359 171.30859 z "
       id="path4" />
  </g>
</svg>
