<?xml version="1.0" encoding="UTF-8"?>
<svg xmlns="http://www.w3.org/2000/svg" xmlns:xlink="http://www.w3.org/1999/xlink" width="512px" height="512px" viewBox="0 0 512 512" version="1.1">
<g id="surface1">
<path style=" stroke:none;fill-rule:nonzero;fill:rgb(72.156864%,72.156864%,72.156864%);fill-opacity:1;" d="M 256 170.820312 C 202.980469 170.820312 160 212.476562 160 263.871094 C 160 315.257812 202.980469 356.917969 256 356.917969 C 309.019531 356.917969 352 315.257812 352 263.871094 C 352 212.476562 309.019531 170.820312 256 170.820312 Z M 256 170.820312 "/>
<path style=" stroke:none;fill-rule:nonzero;fill:rgb(72.156864%,72.156864%,72.156864%);fill-opacity:1;" d="M 256 77.769531 C 114.613281 77.769531 0 263.871094 0 263.871094 C 0 263.871094 114.613281 449.96875 256 449.96875 C 397.386719 449.96875 512 263.871094 512 263.871094 C 512 263.871094 397.386719 77.769531 256 77.769531 Z M 256 139.800781 C 379.710938 139.800781 448 263.871094 448 263.871094 C 448 263.871094 379.710938 387.9375 256 387.9375 C 132.289062 387.9375 64 263.871094 64 263.871094 C 64 263.871094 132.289062 139.800781 256 139.800781 Z M 256 139.800781 "/>
</g>
</svg>
